{"asset":{"version":"2.0","generator":"tree-extract-v2"},"scene":0,"scenes":[{"nodes":[0,1]}],"nodes":[{"name":"Bark","mesh":0,"matrix":[0.3335793039036048,0,0,0,0,-5.6237266515325655e-8,0.3335793039036,0,0,-0.3335793039036,-5.6237266515325655e-8,0,0,0,0,1]},{"name":"Leaves","mesh":1,"matrix":[0.3335793039036048,0,0,0,0,-5.6237266515325655e-8,0.3335793039036,0,0,-0.3335793039036,-5.6237266515325655e-8,0,0,0,0,1]}],"meshes":[{"name":"Object_2672","primitives":[{"attributes":{"NORMAL":1,"POSITION":0,"TANGENT":2,"TEXCOORD_0":3,"TEXCOORD_1":4,"TEXCOORD_2":5,"TEXCOORD_3":6,"TEXCOORD_4":7},"indices":8,"material":0,"mode":4}]},{"name":"Object_2673","primitives":[{"attributes":{"NORMAL":10,"POSITION":9,"TANGENT":11,"TEXCOORD_0":12,"TEXCOORD_1":13,"TEXCOORD_2":14},"indices":15,"material":1,"mode":4}]}],"accessors":[{"bufferView":2,"byteOffset":6663336,"componentType":5126,"count":2286,"max":[9.18265438079834,7.954211235046387,2.4511433593943366e-7],"min":[-6.754758834838867,-9.188828468322754,-31.301176071166992],"type":"VEC3"},{"bufferView":2,"byteOffset":6690768,"componentType":5126,"count":2286,"max":[0.9975630044937134,0.9871399998664856,0.4049616754055023],"min":[-0.9937567114830017,-0.9998329281806946,-0.6566617488861084],"type":"VEC3"},{"bufferView":3,"byteOffset":4440720,"componentType":5126,"count":2286,"max":[0.9921767711639404,0.9813709259033203,0.9711765050888062,1],"min":[-0.842375636100769,-0.9078084826469421,-0.4099087715148926,-1],"type":"VEC4"},{"bufferView":1,"byteOffset":6725520,"componentType":5126,"count":2286,"max":[1.3021392822265625,1.6474698781967163],"min":[-0.15355566143989563,-0.20244771242141724],"type":"VEC2"},{"bufferView":1,"byteOffset":6743808,"componentType":5126,"count":2286,"max":[1,0.9996291399002075],"min":[1,0.8503709435462952],"type":"VEC2"},{"bufferView":1,"byteOffset":6762096,"componentType":5126,"count":2286,"max":[1.3021392822265625,1.6474698781967163],"min":[-0.15355566143989563,-0.20244771242141724],"type":"VEC2"},{"bufferView":1,"byteOffset":6780384,"componentType":5126,"count":2286,"max":[1.3021392822265625,1.6474698781967163],"min":[-0.15355566143989563,-0.20244771242141724],"type":"VEC2"},{"bufferView":1,"byteOffset":6798672,"componentType":5126,"count":2286,"max":[1.3021392822265625,1.6474698781967163],"min":[-0.15355566143989563,-0.20244771242141724],"type":"VEC2"},{"bufferView":0,"byteOffset":2210676,"componentType":5125,"count":8325,"type":"SCALAR"},{"bufferView":2,"byteOffset":6718200,"componentType":5126,"count":3648,"max":[12.918429374694824,12.678014755249023,-0.07828014343976974],"min":[-11.590194702148438,-14.383584022521973,-33.99972915649414],"type":"VEC3"},{"bufferView":2,"byteOffset":6761976,"componentType":5126,"count":3648,"max":[0.9998736381530762,0.9998019933700562,0.9987561106681824],"min":[-0.9997057318687439,-0.9990829229354858,-0.9976751208305359],"type":"VEC3"},{"bufferView":3,"byteOffset":4477296,"componentType":5126,"count":3648,"max":[0.9995503425598145,0.9994931221008301,0.9993208050727844,1],"min":[-0.9999505877494812,-0.9997271299362183,-0.9998806118965149,-1],"type":"VEC4"},{"bufferView":1,"byteOffset":6816960,"componentType":5126,"count":3648,"max":[0.9873929619789124,0.9212044477462769],"min":[0.014381788671016693,0],"type":"VEC2"},{"bufferView":1,"byteOffset":6846144,"componentType":5126,"count":3648,"max":[1,0.9996291399002075],"min":[1,0.8503709435462952],"type":"VEC2"},{"bufferView":1,"byteOffset":6875328,"componentType":5126,"count":3648,"max":[0.9873929619789124,0.9212044477462769],"min":[0.014381788671016693,0],"type":"VEC2"},{"bufferView":0,"byteOffset":2243976,"componentType":5125,"count":5472,"type":"SCALAR"}],"bufferViews":[{"buffer":0,"byteLength":3079824,"name":"floatBufferViews","target":34963},{"buffer":0,"byteLength":9644616,"byteOffset":3079824,"byteStride":8,"name":"floatBufferViews","target":34962},{"buffer":0,"byteLength":9075696,"byteOffset":12724440,"byteStride":12,"name":"floatBufferViews","target":34962},{"buffer":0,"byteLength":6048960,"byteOffset":21800136,"byteStride":16,"name":"floatBufferViews","target":34962}],"buffers":[{"byteLength":27849096,"uri":"scene.bin"}],"materials":[{"doubleSided":true,"extensions":{"KHR_materials_specular":{"specularColorFactor":[1,1,1],"specularFactor":0.44952517950530896}},"name":"Bark","normalTexture":{"index":2},"pbrMetallicRoughness":{"baseColorTexture":{"index":0},"metallicFactor":0,"metallicRoughnessTexture":{"index":1}}},{"alphaMode":"MASK","doubleSided":true,"extensions":{"KHR_materials_specular":{"specularColorFactor":[1,1,1],"specularFactor":0.07771452255854494}},"name":"Leaves","normalTexture":{"index":4},"pbrMetallicRoughness":{"baseColorTexture":{"index":3},"metallicFactor":0,"roughnessFactor":0.5}}],"textures":[{"sampler":0,"source":0},{"sampler":0,"source":1},{"sampler":0,"source":2},{"sampler":0,"source":3},{"sampler":0,"source":4}],"images":[{"uri":"textures/Bark_baseColor.jpeg"},{"uri":"textures/Bark_metallicRoughness.png"},{"uri":"textures/Bark_normal.png"},{"uri":"textures/Leaves_baseColor.png"},{"uri":"textures/Leaves_normal.png"}],"samplers":[{"magFilter":9729,"minFilter":9987,"wrapS":10497,"wrapT":10497}]}