{"asset":{"version":"2.0","generator":"tree-extract-v2"},"scene":0,"scenes":[{"nodes":[0,1]}],"nodes":[{"name":"Bark","mesh":0,"matrix":[0.3272476526513515,7.788757074809702e-9,-0.2755665778118221,0,0.27556657781181904,-7.393528307071227e-8,0.32724765265134587,0,-4.166550706855137e-8,-0.42781767725601655,-6.157171699924902e-8,0,0,0,0,1]},{"name":"Leaves","mesh":1,"matrix":[0.3272476526513515,7.788757074809702e-9,-0.2755665778118221,0,0.27556657781181904,-7.393528307071227e-8,0.32724765265134587,0,-4.166550706855137e-8,-0.42781767725601655,-6.157171699924902e-8,0,0.0000010512030712561682,-2.8199664825478976e-13,0.0000012483507241256575,1]}],"meshes":[{"name":"Object_2682","primitives":[{"attributes":{"NORMAL":1,"POSITION":0,"TANGENT":2,"TEXCOORD_0":3,"TEXCOORD_1":4,"TEXCOORD_2":5,"TEXCOORD_3":6,"TEXCOORD_4":7},"indices":8,"material":0,"mode":4}]},{"name":"Object_2683","primitives":[{"attributes":{"NORMAL":10,"POSITION":9,"TANGENT":11,"TEXCOORD_0":12,"TEXCOORD_1":13,"TEXCOORD_2":14},"indices":15,"material":1,"mode":4}]}],"accessors":[{"bufferView":2,"byteOffset":7375416,"componentType":5126,"count":279,"max":[5.569216251373291,5.986496448516846,0.2397310584783554],"min":[-6.758195877075195,-6.223066329956055,-26.18613624572754],"type":"VEC3"},{"bufferView":2,"byteOffset":7378764,"componentType":5126,"count":279,"max":[0.9775318503379822,0.7586970329284668,0.22374485433101654],"min":[-0.980986475944519,-0.999631404876709,-0.6977332234382629],"type":"VEC3"},{"bufferView":3,"byteOffset":4915440,"componentType":5126,"count":279,"max":[0.9839927554130554,0.9137102365493774,0.7995405793190002,-1],"min":[-0.8575278520584106,-0.8951365351676941,0.14812974631786346,-1],"type":"VEC4"},{"bufferView":1,"byteOffset":7620480,"componentType":5126,"count":279,"max":[0.9333808422088623,1.4498279094696045],"min":[-0.418163537979126,-0.3214368224143982],"type":"VEC2"},{"bufferView":1,"byteOffset":7622712,"componentType":5126,"count":279,"max":[1,0.9996291399002075],"min":[1,0.8503709435462952],"type":"VEC2"},{"bufferView":1,"byteOffset":7624944,"componentType":5126,"count":279,"max":[0.9333808422088623,1.4498279094696045],"min":[-0.418163537979126,-0.3214368224143982],"type":"VEC2"},{"bufferView":1,"byteOffset":7627176,"componentType":5126,"count":279,"max":[0.9333808422088623,1.4498279094696045],"min":[-0.418163537979126,-0.3214368224143982],"type":"VEC2"},{"bufferView":1,"byteOffset":7629408,"componentType":5126,"count":279,"max":[0.9333808422088623,1.4498279094696045],"min":[-0.418163537979126,-0.3214368224143982],"type":"VEC2"},{"bufferView":0,"byteOffset":2486616,"componentType":5125,"count":828,"type":"SCALAR"},{"bufferView":2,"byteOffset":7382112,"componentType":5126,"count":3060,"max":[8.188094139099121,8.66503620147705,-6.2787556648254395],"min":[-9.449564933776855,-8.55670166015625,-28.812959671020508],"type":"VEC3"},{"bufferView":2,"byteOffset":7418832,"componentType":5126,"count":3060,"max":[0.9993942975997925,0.9995236396789551,0.9913384914398193],"min":[-0.999319851398468,-0.9997864961624146,-0.9978417158126831],"type":"VEC3"},{"bufferView":3,"byteOffset":4919904,"componentType":5126,"count":3060,"max":[0.9962844848632812,0.9963093996047974,0.9994155764579773,1],"min":[-0.9982311129570007,-0.9996466636657715,-0.999237060546875,-1],"type":"VEC4"},{"bufferView":1,"byteOffset":7631640,"componentType":5126,"count":3060,"max":[0.9873929619789124,0.9212044477462769],"min":[0.014381788671016693,0],"type":"VEC2"},{"bufferView":1,"byteOffset":7656120,"componentType":5126,"count":3060,"max":[1,0.9996291399002075],"min":[1,0.9996291399002075],"type":"VEC2"},{"bufferView":1,"byteOffset":7680600,"componentType":5126,"count":3060,"max":[0.9873929619789124,0.9212044477462769],"min":[0.014381788671016693,0],"type":"VEC2"},{"bufferView":0,"byteOffset":2489928,"componentType":5125,"count":4590,"type":"SCALAR"}],"bufferViews":[{"buffer":0,"byteLength":3079824,"name":"floatBufferViews","target":34963},{"buffer":0,"byteLength":9644616,"byteOffset":3079824,"byteStride":8,"name":"floatBufferViews","target":34962},{"buffer":0,"byteLength":9075696,"byteOffset":12724440,"byteStride":12,"name":"floatBufferViews","target":34962},{"buffer":0,"byteLength":6048960,"byteOffset":21800136,"byteStride":16,"name":"floatBufferViews","target":34962}],"buffers":[{"byteLength":27849096,"uri":"scene.bin"}],"materials":[{"doubleSided":true,"extensions":{"KHR_materials_specular":{"specularColorFactor":[1,1,1],"specularFactor":0.44952517950530896}},"name":"Bark","normalTexture":{"index":2},"pbrMetallicRoughness":{"baseColorTexture":{"index":0},"metallicFactor":0,"metallicRoughnessTexture":{"index":1}}},{"alphaMode":"MASK","doubleSided":true,"extensions":{"KHR_materials_specular":{"specularColorFactor":[1,1,1],"specularFactor":0.07771452255854494}},"name":"Leaves","normalTexture":{"index":4},"pbrMetallicRoughness":{"baseColorTexture":{"index":3},"metallicFactor":0,"roughnessFactor":0.5}}],"textures":[{"sampler":0,"source":0},{"sampler":0,"source":1},{"sampler":0,"source":2},{"sampler":0,"source":3},{"sampler":0,"source":4}],"images":[{"uri":"textures/Bark_baseColor.jpeg"},{"uri":"textures/Bark_metallicRoughness.png"},{"uri":"textures/Bark_normal.png"},{"uri":"textures/Leaves_baseColor.png"},{"uri":"textures/Leaves_normal.png"}],"samplers":[{"magFilter":9729,"minFilter":9987,"wrapS":10497,"wrapT":10497}]}